# xmcd
#
# Track frame offsets: 
#        150
#        13403
#        29401
#        39363
#        50961
#        60830
#        73527
#        91198
#        103481
#        113407
#        124002
#
# Disc length: 1824 seconds
#
# Revision: 0
# Processed by: cddbd v1.5.2PL0 Copyright (c) Steve Scherf et al.
# Submitted via: ExactAudioCopy v1.0b1
#
DISCID=91071e0b
DTITLE=Lynn Anderson - Rose Garden
DYEAR=1900
DGENRE=Country
TTITLE0=Rose Garden
TTITLE1=For The Good Times
TTITLE2=Another Lonely Night
TTITLE3=I Don't Want To Play House
TTITLE4=Snowbird
TTITLE5=Your Sweet Love Lifted Me
TTITLE6=Sunday Morning Coming Down
TTITLE7=I Still Belong To You
TTITLE8=I Wish I Was A Little Boy Again
TTITLE9=It's Only Make Believe
TTITLE10=Nothing Between Us
EXTD=
EXTT0=
EXTT1=
EXTT2=
EXTT3=
EXTT4=
EXTT5=
EXTT6=
EXTT7=
EXTT8=
EXTT9=
EXTT10=
PLAYORDER=
